<?xml version="1.0" encoding="UTF-8"?>
<svg xmlns="http://www.w3.org/2000/svg" xmlns:xlink="http://www.w3.org/1999/xlink" width="3939pt" height="3939pt" viewBox="0 0 3939 3939" version="1.1">
<g id="surface1">
<path style=" stroke:none;fill-rule:nonzero;fill:rgb(0%,0%,0%);fill-opacity:1;" d="M 1969.5 0 C 882.007812 0 0 881.84375 0 1969.5 C 0 2839.691406 564.261719 3577.925781 1346.972656 3838.390625 C 1445.285156 3856.609375 1477.125 3795.554688 1477.125 3743.691406 L 1477.125 3377.035156 C 929.277344 3496.191406 815.207031 3144.636719 815.207031 3144.636719 C 725.597656 2916.992188 596.429688 2856.429688 596.429688 2856.429688 C 417.699219 2734.160156 610.050781 2736.785156 610.050781 2736.785156 C 807.824219 2750.570312 911.878906 2939.808594 911.878906 2939.808594 C 1087.492188 3240.8125 1372.578125 3153.824219 1485.003906 3103.441406 C 1502.5625 2976.242188 1553.605469 2889.257812 1610.066406 2840.183594 C 1172.671875 2790.125 712.792969 2621.242188 712.792969 1866.757812 C 712.792969 1651.589844 789.769531 1475.976562 915.652344 1338.109375 C 895.300781 1288.382812 827.847656 1087.984375 934.855469 816.851562 C 934.855469 816.851562 1100.292969 764 1476.632812 1018.722656 C 1633.699219 975.066406 1802.09375 953.238281 1969.5 952.417969 C 2136.90625 953.238281 2305.464844 975.066406 2462.859375 1018.722656 C 2838.871094 764 3003.980469 816.851562 3003.980469 816.851562 C 3111.152344 1088.148438 3043.699219 1288.546875 3023.347656 1338.109375 C 3149.722656 1475.976562 3226.039062 1651.753906 3226.039062 1866.757812 C 3226.039062 2623.210938 2765.34375 2789.796875 2326.800781 2838.542969 C 2397.375 2899.597656 2461.875 3019.40625 2461.875 3203.226562 L 2461.875 3743.691406 C 2461.875 3796.046875 2493.386719 3857.59375 2593.339844 3838.226562 C 3375.394531 3577.433594 3939 2839.363281 3939 1969.5 C 3939 881.84375 3057.15625 0 1969.5 0 Z M 1969.5 0 "/>
</g>
</svg>
