<?xml version="1.0" encoding="UTF-8"?>
<svg xmlns="http://www.w3.org/2000/svg" xmlns:xlink="http://www.w3.org/1999/xlink" width="39pt" height="39pt" viewBox="0 0 39 39" version="1.1">
<g id="surface1">
<path style=" stroke:none;fill-rule:nonzero;fill:rgb(0%,0%,0%);fill-opacity:1;" d="M 19.5 0 C 8.734375 0 0 8.730469 0 19.5 C 0 28.117188 5.585938 35.425781 13.335938 38.003906 C 14.308594 38.183594 14.625 37.578125 14.625 37.066406 L 14.625 33.4375 C 9.199219 34.617188 8.070312 31.136719 8.070312 31.136719 C 7.183594 28.882812 5.90625 28.28125 5.90625 28.28125 C 4.136719 27.070312 6.039062 27.097656 6.039062 27.097656 C 8 27.234375 9.027344 29.105469 9.027344 29.105469 C 10.765625 32.085938 13.589844 31.226562 14.703125 30.726562 C 14.875 29.46875 15.382812 28.605469 15.941406 28.121094 C 11.609375 27.625 7.058594 25.953125 7.058594 18.484375 C 7.058594 16.351562 7.820312 14.613281 9.066406 13.25 C 8.863281 12.757812 8.195312 10.773438 9.257812 8.085938 C 9.257812 8.085938 10.894531 7.5625 14.621094 10.085938 C 16.175781 9.652344 17.84375 9.4375 19.5 9.429688 C 21.15625 9.4375 22.828125 9.652344 24.382812 10.085938 C 28.109375 7.5625 29.742188 8.085938 29.742188 8.085938 C 30.804688 10.773438 30.136719 12.757812 29.933594 13.25 C 31.183594 14.613281 31.941406 16.355469 31.941406 18.484375 C 31.941406 25.972656 27.378906 27.621094 23.039062 28.105469 C 23.738281 28.707031 24.375 29.894531 24.375 31.714844 L 24.375 37.066406 C 24.375 37.585938 24.6875 38.195312 25.675781 38.003906 C 33.417969 35.421875 39 28.113281 39 19.5 C 39 8.730469 30.269531 0 19.5 0 Z M 19.5 0 "/>
</g>
</svg>
